<?xml version="1.0" encoding="utf-8"?>
<svg version="1.1" id="Layer_1" x="0px" y="0px" width="60px" height="48px" viewBox="-4 -4 60 48" enable-background="new -4 -4 60 48" xmlns="http://www.w3.org/2000/svg">
  <g transform="matrix(1, 0, 0, 1, 0.671116, 0.488083)">
    <circle cx="-2" cy="-2" r="2" style="stroke: rgb(53, 232, 179); stroke-width: 0px; fill: rgb(53, 232, 179);"/>
    <circle cx="10" cy="-2" r="2" style="stroke: rgb(53, 232, 179); stroke-width: 0px; fill: rgb(53, 232, 179);"/>
    <circle cx="22" cy="-2" r="2" style="stroke: rgb(53, 232, 179); stroke-width: 0px; fill: rgb(53, 232, 179);"/>
    <circle cx="34" cy="-2" r="2" style="stroke: rgb(53, 232, 179); stroke-width: 0px; fill: rgb(53, 232, 179);"/>
    <circle cx="46" cy="-2" r="2" style="stroke: rgb(53, 232, 179); stroke-width: 0px; fill: rgb(53, 232, 179);"/>
    <circle cx="-2" cy="10" r="2" style="stroke: rgb(53, 232, 179); stroke-width: 0px; fill: rgb(53, 232, 179);"/>
    <circle cx="10" cy="10" r="2" style="stroke: rgb(53, 232, 179); stroke-width: 0px; fill: rgb(53, 232, 179);"/>
    <circle cx="22" cy="10" r="2" style="stroke: rgb(53, 232, 179); stroke-width: 0px; fill: rgb(53, 232, 179);"/>
    <circle cx="34" cy="10" r="2" style="stroke: rgb(53, 232, 179); stroke-width: 0px; fill: rgb(53, 232, 179);"/>
    <circle cx="46" cy="10" r="2" style="stroke: rgb(53, 232, 179); stroke-width: 0px; fill: rgb(53, 232, 179);"/>
    <circle cx="-2" cy="22" r="2" style="stroke: rgb(53, 232, 179); stroke-width: 0px; fill: rgb(53, 232, 179);"/>
    <circle cx="10" cy="22" r="2" style="stroke: rgb(53, 232, 179); stroke-width: 0px; fill: rgb(53, 232, 179);"/>
    <circle cx="22" cy="22" r="2" style="stroke: rgb(53, 232, 179); stroke-width: 0px; fill: rgb(53, 232, 179);"/>
    <circle cx="34" cy="22" r="2" style="stroke: rgb(53, 232, 179); stroke-width: 0px; fill: rgb(53, 232, 179);"/>
    <circle cx="46" cy="22" r="2" style="stroke: rgb(53, 232, 179); stroke-width: 0px; fill: rgb(53, 232, 179);"/>
    <circle cx="-2" cy="34" r="2" style="stroke: rgb(53, 232, 179); stroke-width: 0px; fill: rgb(53, 232, 179);"/>
    <circle cx="10" cy="34" r="2" style="stroke: rgb(53, 232, 179); stroke-width: 0px; fill: rgb(53, 232, 179);"/>
    <circle cx="22" cy="34" r="2" style="stroke: rgb(53, 232, 179); stroke-width: 0px; fill: rgb(53, 232, 179);"/>
    <circle cx="34" cy="34" r="2" style="stroke: rgb(53, 232, 179); stroke-width: 0px; fill: rgb(53, 232, 179);"/>
    <circle cx="46" cy="34" r="2" style="stroke: rgb(53, 232, 179); stroke-width: 0px; fill: rgb(53, 232, 179);"/>
  </g>
</svg>